<svg xmlns="http://www.w3.org/2000/svg" viewBox="0 0 48 48">
  <rect width="48" height="48" rx="10" ry="10" fill="#C8102E"/>

  <rect x="9" y="6" width="3" height="16" fill="white"/>
  <rect x="19" y="6" width="3" height="16" fill="white"/>
  <rect x="9" y="12.5" width="13" height="3" fill="white"/>

  <rect x="26" y="6" width="3" height="16" fill="white"/>
  <rect x="36" y="6" width="3" height="16" fill="white"/>
  <polygon points="26,6 29,6 39,22 36,22" fill="white"/>
  <rect x="26" y="6" width="3" height="16" fill="white"/>
  <rect x="36" y="6" width="3" height="16" fill="white"/>

  <rect x="9" y="26" width="3" height="16" fill="white"/>
  <rect x="19" y="26" width="3" height="16" fill="white"/>
  <rect x="9" y="32.5" width="13" height="3" fill="white"/>

  <rect x="26" y="26" width="3" height="16" fill="white"/>
  <rect x="36" y="26" width="3" height="16" fill="white"/>
  <rect x="26" y="32.5" width="13" height="3" fill="white"/>
</svg>